<svg xmlns="http://www.w3.org/2000/svg" viewBox="0 0 144 144"><defs><style>.cls-1{fill:none;}.cls-2{fill:#f8da18;}.cls-3{fill:#2aaee4;}.cls-4{fill:#0e1c36;}</style></defs><title>logo-small-transparent</title><g id="Layer_2" data-name="Layer 2"><g id="logo-small-transparent"><g id="logo-small-transparent-2" data-name="logo-small-transparent"><rect class="cls-1" width="144" height="144"/><path class="cls-2" d="M130.35,36v53.8a2.09,2.09,0,0,0-1.65-1.37l-5.23-.83-3.4-.55-4.84-.78-3.87-.62-3.09-.49a2.13,2.13,0,0,0-2.36,2.68l.23.94a2.15,2.15,0,0,1-1.58,2.66,1.45,1.45,0,0,1-.3,0l-2.51.18-7.4.53-3.29.24-1.49.11-4.22.3-3.28.24-5.7.42-4.77.34-3.89.29-2.16.15V36a6.68,6.68,0,0,1,6.68-6.68h51.44A6.68,6.68,0,0,1,130.35,36Z"/><path class="cls-3" d="M85.35,25.18V92.83l-3.28.24-5.7.42-4.77.34-3.89.29-2.16.15-6,.43-7.5.55H52A2.17,2.17,0,0,0,50.07,98l2.31,9.15a2.15,2.15,0,0,1-1.77,2.69l-7.83,1-8.14,1L15.2,114.27a2.13,2.13,0,0,0-1.7,1.36,2.24,2.24,0,0,0-.15.81V25.18A6.68,6.68,0,0,1,20,18.5H78.67A6.68,6.68,0,0,1,85.35,25.18Z"/><g id="Arrow"><path class="cls-4" d="M130.35,89.78V91.4a2.1,2.1,0,0,1-.67.89l-6.14,4.85-1.91,1.51-3.94,3.1-2.16,1.71-2.19,1.73a2.1,2.1,0,0,1-3.28-1L110,104l-.62-2.45A2.12,2.12,0,0,0,107,99.94l-1.28.2-2.78.42-7.32,1.12-4.5.68-.23,0-5.55.85-1.87.28-5.64.86-6.16.94-2.42.37-1.88.29a2.17,2.17,0,0,0-1.73,2.69l.54,1.4,2,5.25A2.16,2.16,0,0,1,66.45,118l-.9.14-47.18,7.31A2.14,2.14,0,0,1,16,123.85L13.42,117a2,2,0,0,1-.07-.54,2.24,2.24,0,0,1,.15-.81,2.13,2.13,0,0,1,1.7-1.36l19.44-2.45,8.14-1,7.83-1a2.15,2.15,0,0,0,1.77-2.69L50.07,98A2.17,2.17,0,0,1,52,95.25h.12l7.5-.55,6-.43,2.16-.15,3.89-.29,4.77-.34,5.7-.42,3.28-.24,4.22-.3,1.49-.11,3.29-.24,7.4-.53,2.51-.18a1.45,1.45,0,0,0,.3,0,2.15,2.15,0,0,0,1.58-2.66l-.23-.94a2.13,2.13,0,0,1,2.36-2.68l3.09.49,3.87.62,4.84.78,3.4.55,5.23.83A2.09,2.09,0,0,1,130.35,89.78Z"/><path class="cls-4" d="M130.5,90.71a2,2,0,0,1-.15.69V89.78a.36.36,0,0,1,0,.09Z"/><path class="cls-4" d="M130.5,90.72l-.12-.85A2.43,2.43,0,0,1,130.5,90.72Z"/></g></g></g></g></svg>