<svg xmlns="http://www.w3.org/2000/svg" viewBox="0 0 117.15 107"><defs><style>.cls-1{fill:#f8da18;}.cls-2{fill:#2aaee4;}.cls-3{fill:#fff;}</style></defs><title>logo-small-dark-bg</title><g id="Layer_2" data-name="Layer 2"><g id="logo-small-dark-bg"><g id="logo-small-dark-bg-2" data-name="logo-small-dark-bg"><path class="cls-1" d="M117,17.48v53.8a2.09,2.09,0,0,0-1.65-1.37l-5.23-.83-3.4-.55-4.84-.78L98,67.13l-3.09-.49a2.13,2.13,0,0,0-2.36,2.68l.23.94a2.15,2.15,0,0,1-1.58,2.66,1.45,1.45,0,0,1-.3,0l-2.51.18-7.4.53-3.29.24L76.22,74l-4.22.3-3.28.24L63,75l-4.77.34-3.89.29-2.16.15V17.48a6.68,6.68,0,0,1,6.68-6.68h51.44A6.68,6.68,0,0,1,117,17.48Z"/><path class="cls-2" d="M72,6.68V74.33l-3.28.24L63,75l-4.77.34-3.89.29-2.16.15-6,.43-7.5.55h-.12a2.17,2.17,0,0,0-1.89,2.72L39,88.62a2.15,2.15,0,0,1-1.77,2.69l-7.83,1-8.14,1L1.85,95.77a2.13,2.13,0,0,0-1.7,1.36,2.24,2.24,0,0,0-.15.81V6.68A6.68,6.68,0,0,1,6.68,0H65.32A6.68,6.68,0,0,1,72,6.68Z"/><g id="Arrow"><path class="cls-3" d="M117,71.28V72.9a2.1,2.1,0,0,1-.67.89l-6.14,4.85-1.91,1.51-3.94,3.1L102.18,85,100,86.69a2.1,2.1,0,0,1-3.28-1l-.06-.19L96,83.05a2.12,2.12,0,0,0-2.37-1.61l-1.28.2-2.78.42-7.32,1.12-4.5.68-.23,0L72,84.75,70.13,85l-5.64.86-6.16.94-2.42.37L54,87.49a2.17,2.17,0,0,0-1.73,2.69l.54,1.4,2,5.25a2.16,2.16,0,0,1-1.72,2.69l-.9.14L5,107a2.14,2.14,0,0,1-2.38-1.62L.07,98.48A2,2,0,0,1,0,97.94a2.24,2.24,0,0,1,.15-.81,2.13,2.13,0,0,1,1.7-1.36l19.44-2.45,8.14-1,7.83-1A2.15,2.15,0,0,0,39,88.62l-2.31-9.15a2.17,2.17,0,0,1,1.89-2.72h.12l7.5-.55,6-.43,2.16-.15,3.89-.29L63,75l5.7-.42L72,74.33l4.22-.3,1.49-.11L81,73.68l7.4-.53L90.91,73a1.45,1.45,0,0,0,.3,0,2.15,2.15,0,0,0,1.58-2.66l-.23-.94a2.13,2.13,0,0,1,2.36-2.68l3.09.49,3.87.62,4.84.78,3.4.55,5.23.83A2.09,2.09,0,0,1,117,71.28Z"/><path class="cls-3" d="M117.15,72.21a2,2,0,0,1-.15.69V71.28a.36.36,0,0,1,0,.09Z"/><path class="cls-3" d="M117.15,72.21l-.11-.84A2.19,2.19,0,0,1,117.15,72.21Z"/></g></g></g></g></svg>