<svg xmlns="http://www.w3.org/2000/svg" viewBox="0 0 144 144"><defs><style>.cls-1{fill:none;}.cls-2{fill:#f8da18;}.cls-3{fill:#2aaee4;}.cls-4{fill:#0e1c36;}</style></defs><title>logo-small-transparent-with-text</title><g id="Layer_2" data-name="Layer 2"><g id="logo-small-transparent-with-text"><g id="logo-small-transparent-with-text-2" data-name="logo-small-transparent-with-text"><rect class="cls-1" width="144" height="144"/><path class="cls-2" d="M116.53,35.84v41a1.59,1.59,0,0,0-1.25-1l-4-.63-2.59-.42-3.69-.6-3-.47-2.36-.37a1.63,1.63,0,0,0-1.8,2l.18.72a1.64,1.64,0,0,1-1.2,2,.93.93,0,0,1-.23,0l-1.92.14-5.64.4-2.51.19L85.45,79l-3.22.23-2.5.18-4.34.32-3.64.26-3,.22-1.65.12V35.84a5.09,5.09,0,0,1,5.09-5.09h39.21A5.09,5.09,0,0,1,116.53,35.84Z"/><path class="cls-3" d="M82.23,27.61V79.18l-2.5.18-4.34.32-3.64.26-3,.22-1.65.12-4.55.32L56.87,81h-.09a1.66,1.66,0,0,0-1.44,2.08l1.76,7a1.64,1.64,0,0,1-1.35,2.05l-6,.76-6.2.77L28.76,95.52a1.65,1.65,0,0,0-1.3,1,1.84,1.84,0,0,0-.11.62V27.61a5.09,5.09,0,0,1,5.09-5.09h44.7A5.09,5.09,0,0,1,82.23,27.61Z"/><g id="Arrow"><path class="cls-4" d="M116.53,76.85v1.24a1.5,1.5,0,0,1-.51.68l-4.68,3.69-1.45,1.15-3,2.37-1.64,1.3-1.67,1.32a1.6,1.6,0,0,1-2.5-.76s0-.1,0-.15l-.47-1.86a1.61,1.61,0,0,0-1.81-1.23l-1,.15-2.12.32-5.58.85-3.43.52-.18,0-4.23.65-1.42.21-4.3.66-4.7.72L70,89l-1.44.22a1.65,1.65,0,0,0-1.31,2.05l.41,1.07,1.51,4a1.65,1.65,0,0,1-1.31,2l-.69.11-36,5.57a1.63,1.63,0,0,1-1.81-1.24l-2-5.23a1.48,1.48,0,0,1,0-.41,1.84,1.84,0,0,1,.11-.62,1.65,1.65,0,0,1,1.3-1l14.82-1.87,6.2-.77,6-.76a1.64,1.64,0,0,0,1.35-2.05l-1.76-7A1.66,1.66,0,0,1,56.78,81h.09l5.72-.42,4.55-.32,1.65-.12,3-.22,3.64-.26,4.34-.32,2.5-.18L85.45,79l1.13-.08,2.51-.19,5.64-.4,1.92-.14a.93.93,0,0,0,.23,0,1.64,1.64,0,0,0,1.2-2l-.18-.72a1.63,1.63,0,0,1,1.8-2l2.36.37,3,.47,3.69.6,2.59.42,4,.63A1.59,1.59,0,0,1,116.53,76.85Z"/><path class="cls-4" d="M116.65,77.56a1.63,1.63,0,0,1-.12.53V76.85a.13.13,0,0,1,0,.07Z"/><path class="cls-4" d="M116.65,77.56l-.09-.64A1.74,1.74,0,0,1,116.65,77.56Z"/></g><path class="cls-4" d="M32.46,114.62a3.42,3.42,0,0,1,2.43,3.4,3.74,3.74,0,0,1-3.83,3.66A3.78,3.78,0,0,1,27.41,119l2-.53a1.68,1.68,0,0,0,1.64,1.26A1.71,1.71,0,0,0,32.78,118a1.69,1.69,0,0,0-1.72-1.72,1.72,1.72,0,0,0-.85.25l-.93-1.63,3-2.45H27.83v-2h6.86v2Z"/><path class="cls-4" d="M36.25,117.64v-3.29a3.84,3.84,0,0,1,4.07-4.06,3.84,3.84,0,0,1,4.06,4.06v3.29a3.84,3.84,0,0,1-4.06,4.07A3.85,3.85,0,0,1,36.25,117.64Zm6,.16v-3.61a1.95,1.95,0,1,0-3.89,0v3.61a1.95,1.95,0,1,0,3.89,0Z"/><path class="cls-4" d="M47.88,118.13l2.16-.32a2.52,2.52,0,0,0,2.57,2c1,0,2.09-.49,2.09-1.4,0-.45-.22-.84-1.07-1.1l-2.85-.84a2.88,2.88,0,0,1-2.48-2.86c0-2.21,1.84-3.29,4.1-3.28a4.19,4.19,0,0,1,4.38,3.22l-2.23.38a2.2,2.2,0,0,0-2.18-1.66c-1,0-1.89.45-1.89,1.23s.76,1,1.46,1.17l1.9.52c1.13.31,3,.85,3,3.06,0,2.36-2.17,3.49-4.41,3.49C50,121.71,48.21,120.35,47.88,118.13Z"/><path class="cls-4" d="M65.09,119.55v1.93H57.93v-11h7.16v1.93H60v2.35h4.17v1.93H60v2.82Z"/><path class="cls-4" d="M65.16,116c0-3.41,2-5.71,5.32-5.71a4.93,4.93,0,0,1,5,3.47l-2.09.58a2.78,2.78,0,0,0-2.89-2.1c-2.09,0-3.14,1.47-3.14,3.76s1,3.76,3.14,3.76a2.79,2.79,0,0,0,2.89-2.1l2.09.58a4.93,4.93,0,0,1-5,3.47C67.19,121.71,65.16,119.41,65.16,116Z"/><path class="cls-4" d="M75.91,116c0-3.41,2-5.71,5.31-5.71s5.31,2.3,5.31,5.71-2,5.71-5.31,5.71S75.91,119.41,75.91,116Zm8.43,0c0-2.29-1-3.73-3.12-3.76S78.1,113.71,78.1,116s1,3.73,3.12,3.76S84.34,118.28,84.34,116Z"/><path class="cls-4" d="M89.54,121.48h-2.1v-11h2.1l4.77,7.31v-7.31h2.1v11h-2.1l-4.77-7.31Z"/><path class="cls-4" d="M97.92,121.48v-11h3.55a12.33,12.33,0,0,1,1.31.06c2.65.32,4.13,2.63,4.13,5.42s-1.48,5.1-4.13,5.42a12.33,12.33,0,0,1-1.31.06Zm2.11-2h1.44a7.38,7.38,0,0,0,1.19-.07c1.43-.29,2.06-1.89,2.06-3.46s-.67-3.18-2.06-3.46a7.38,7.38,0,0,0-1.19-.07H100Z"/><path class="cls-4" d="M107.66,118.13l2.17-.32a2.52,2.52,0,0,0,2.57,2c1,0,2.09-.49,2.09-1.4,0-.45-.22-.84-1.07-1.1l-2.85-.84a2.88,2.88,0,0,1-2.48-2.86c0-2.21,1.84-3.29,4.1-3.28a4.19,4.19,0,0,1,4.38,3.22l-2.24.38a2.18,2.18,0,0,0-2.17-1.66c-1,0-1.89.45-1.89,1.23s.76,1,1.46,1.17l1.9.52c1.13.31,3,.85,3,3.06,0,2.36-2.16,3.49-4.4,3.49C109.83,121.71,108,120.35,107.66,118.13Z"/><path class="cls-4" d="M47.29,134.26c0-3.41,2-5.71,5.31-5.71a4.92,4.92,0,0,1,5,3.47l-2.08.58a2.8,2.8,0,0,0-2.9-2.1c-2.08,0-3.13,1.48-3.13,3.76S50.52,138,52.6,138a2.79,2.79,0,0,0,2.9-2.1l2.08.58a4.92,4.92,0,0,1-5,3.47C49.31,140,47.29,137.67,47.29,134.26Z"/><path class="cls-4" d="M60.93,128.78H64l3.35,11H65.24l-.71-2.28H60.4l-.69,2.28H57.58Zm.06,6.74h2.94l-1.48-4.8Z"/><path class="cls-4" d="M76.65,139.74H74.31L72.5,136H70.19v3.71H68.12v-11h4.63a6.24,6.24,0,0,1,.92.06,3.23,3.23,0,0,1,2.83,3.56,3.34,3.34,0,0,1-1.83,3.28Zm-6.46-9v3.38h2.47a2.77,2.77,0,0,0,.7-.07,1.77,1.77,0,0,0,0-3.23,2.79,2.79,0,0,0-.7-.08Z"/><path class="cls-4" d="M77.71,139.74v-11h3.55a12.43,12.43,0,0,1,1.31.06c2.65.32,4.12,2.63,4.12,5.42s-1.47,5.1-4.12,5.42a12.43,12.43,0,0,1-1.31.06Zm2.1-2h1.45a7.5,7.5,0,0,0,1.19-.07c1.43-.29,2-1.89,2-3.46s-.67-3.18-2-3.46a7.5,7.5,0,0,0-1.19-.07H79.81Z"/><path class="cls-4" d="M87.45,136.39l2.16-.32a2.54,2.54,0,0,0,2.57,2c1,0,2.09-.49,2.09-1.4,0-.45-.21-.84-1.07-1.1l-2.84-.84a2.87,2.87,0,0,1-2.48-2.86c0-2.21,1.84-3.29,4.09-3.28a4.21,4.21,0,0,1,4.39,3.22l-2.24.38a2.19,2.19,0,0,0-2.18-1.66c-1,0-1.89.46-1.89,1.23s.76,1,1.46,1.17l1.91.52c1.12.31,3,.86,3,3.06,0,2.36-2.16,3.49-4.4,3.49C89.61,140,87.78,138.62,87.45,136.39Z"/></g></g></g></svg>