<svg xmlns="http://www.w3.org/2000/svg" viewBox="0 0 289.85 175.05"><defs><style>.cls-1{fill:#f8da18;}.cls-2{fill:#2aaee4;}.cls-3{fill:#fff;}</style></defs><title>logo-big-light-text-large</title><g id="Layer_2" data-name="Layer 2"><g id="logo-big-light-text-large"><g id="logo-big-light-text-large-2" data-name="logo-big-light-text-large"><path class="cls-1" d="M289.25,64.84V80.43a5.08,5.08,0,0,0-3.54-4l-12.17-3.66-7.92-2.39L254.36,67V64.84a6.73,6.73,0,0,1,6.73-6.73h21.43A6.73,6.73,0,0,1,289.25,64.84Z"/><path class="cls-2" d="M265.62,57.33V70.39L254.36,67l-9-2.72-7.18-2.16a5.14,5.14,0,0,0-6.47,5.63l.25,2.3a5.19,5.19,0,0,1-4.6,5.83V57.33a6.73,6.73,0,0,1,6.73-6.73H258.9A6.73,6.73,0,0,1,265.62,57.33Z"/><path class="cls-1" d="M245.36,51V64.28l-7.18-2.16a5.14,5.14,0,0,0-6.47,5.63l.25,2.3a5.19,5.19,0,0,1-4.6,5.83,3.64,3.64,0,0,1-.74,0l-6-.37-17.76-1.1V51a6.73,6.73,0,0,1,6.73-6.72h29.06a6.71,6.71,0,0,1,6.71,6.37A2.06,2.06,0,0,1,245.36,51Z"/><path class="cls-2" d="M220.6,43.87V75.53l-17.76-1.1-7.91-.49-3.57-.22-18-1.1V43.87a6.73,6.73,0,0,1,6.73-6.73h33.78A6.73,6.73,0,0,1,220.6,43.87Z"/><path id="s" class="cls-3" d="M213.55,75.09c-1.41-2.08-4.18-3.48-8.82-4.68l-1.89-.49c-5.49-1.46-6.46-2.17-6.46-3.78,0-2,2.15-3.29,5.35-3.15a9.38,9.38,0,0,1,1.11.13c2.68.45,4.37,1.94,4.69,4.23l7-1.24c-.73-5.18-5.18-8.61-11.66-9-.4,0-.81,0-1.22,0-4.65,0-8.26,1.5-10.26,4.07a8.42,8.42,0,0,0-1.77,5.32,6.67,6.67,0,0,0,1.77,4.91,11.91,11.91,0,0,0,4.25,2.6h0A37,37,0,0,0,200,75.36c6.9,1.84,7.78,2.35,7.78,4.42,0,2.26-1.89,3.65-5.15,3.65-3.73,0-6.34-1.84-7-4.87l-7,1.08c1,6.17,5.94,9.71,13.5,9.71,7.87,0,12.63-3.74,12.63-9.88A7.49,7.49,0,0,0,213.55,75.09Z"/><path class="cls-1" d="M191.36,36V73.72l-18-1.1-13.68-.83-11.46-.7-9.35-.57V36a6.72,6.72,0,0,1,6.73-6.72h39A6.72,6.72,0,0,1,191.36,36Z"/><path id="d" class="cls-3" d="M172.67,46.13v13a13.88,13.88,0,0,0-8.47-2.61,16,16,0,0,0-4.52.62c-6.06,1.73-10.08,7-11.05,14h0a24.25,24.25,0,0,0-.23,3.35c0,10.2,6.1,17.94,15.52,17.94a14,14,0,0,0,9.7-3.46v2.52h6.7V46.13Zm1,28.34c0,6.58-2.43,11.14-8.54,11.14-5.92,0-8.65-4.91-8.65-11.14a16.57,16.57,0,0,1,.23-2.86,10.43,10.43,0,0,1,3-6.25,8.09,8.09,0,0,1,5.66-2c4.73,0,7.25,3,8,7.72a13.32,13.32,0,0,1,.18,1.59A18.34,18.34,0,0,1,173.62,74.47Z"/><path class="cls-2" d="M159.68,27.25V71.79l-11.46-.7-9.35-.57-19.51-1.2-18-1.1v-41a6.73,6.73,0,0,1,6.73-6.73H153A6.73,6.73,0,0,1,159.68,27.25Z"/><path id="r" class="cls-3" d="M138.87,50.72a11.86,11.86,0,0,0-4,1.74,11.31,11.31,0,0,0-3.78,4v-6h-7.46v37.8h8.47V69.05c0-4.38,1.54-7.92,5-9.8a8.89,8.89,0,0,1,1.78-.78,11.08,11.08,0,0,1,6-.13V50.46A15.16,15.16,0,0,0,138.87,50.72Z"/><path class="cls-1" d="M119.36,17.53V69.32l-18-1.1-.3,0a5.18,5.18,0,0,0-5.35,5.86l2.58,22.48a5.16,5.16,0,0,1-5.08,5.83l-18.92-.15-19.68-.16a6.84,6.84,0,0,1,0-.79V17.53a6.73,6.73,0,0,1,6.73-6.73h51.34A6.73,6.73,0,0,1,119.36,17.53Z"/><path id="a" class="cls-3" d="M103.86,48.91a12.37,12.37,0,0,0-2.5-3.42c-3.18-3.08-8-4.39-13.66-4.39-5.87,0-10.29,1.66-13.34,4.49A15.79,15.79,0,0,0,70,52.87l4.37,1.37,4.17,1.31c1.4-4.27,5.4-5.87,9.17-5.87,5.71,0,8.23,2.26,8.58,7.07-7.34,1.09-13.82,2-18.25,3.42a19.51,19.51,0,0,0-3.67,1.68c-4.06,2.43-5.89,6-5.89,10.86a12,12,0,0,0,5.89,10.65,15.86,15.86,0,0,0,8.17,2c6.14,0,10.41-1.81,13.82-5.72a13.55,13.55,0,0,0,.9-1.08v5.63h8.2V58.46C105.45,54.85,105.33,51.86,103.86,48.91Zm-19.46,29c-4.43,0-6.76-2.25-6.76-5.32,0-2.72,1.86-4.31,5.09-5.52,3-1,6.76-1.59,13.44-2.64A19.79,19.79,0,0,1,95.23,71C94.3,73.88,90.77,77.92,84.4,77.92Z"/><path class="cls-2" d="M74.36,6.73v94.54a6,6,0,0,1-.07,1l-19.68-.16-47-.38a5.07,5.07,0,0,0-4.47,2.69,6.61,6.61,0,0,1-.76-3.1V6.73A6.73,6.73,0,0,1,9.09,0H67.63A6.73,6.73,0,0,1,74.36,6.73Z"/><g id="Arrow"><path class="cls-3" d="M289.25,80.43v2A5.07,5.07,0,0,1,286.8,86l-16.16,9.57-5,3-10.35,6.13L249.6,108l-5.77,3.42a5,5,0,0,1-7.48-3.42,4,4,0,0,1-.08-.48l-.7-6a5.05,5.05,0,0,0-5.12-4.59l-3.09.06-6.76.12-17.76.31-10.92.2h-.56l-18,.32-13.68.24-15,.27-5.86.11-4.57.09a5.19,5.19,0,0,0-5,5.84l.82,3.51,3,13.1a5.17,5.17,0,0,1-5,5.85L11.56,129.31a5.12,5.12,0,0,1-5.15-4.6L2.5,107.54a5.65,5.65,0,0,1,0-1.3,5,5,0,0,1,.61-1.87,5.07,5.07,0,0,1,4.47-2.69l47,.38,19.68.16,18.92.15a5.16,5.16,0,0,0,5.08-5.83L95.71,74.06a5.18,5.18,0,0,1,5.35-5.86l.3,0,18,1.1,19.51,1.2,9.35.57,11.46.7,13.68.83,18,1.1,3.57.22,7.91.49,17.76,1.1,6,.37a3.64,3.64,0,0,0,.74,0,5.19,5.19,0,0,0,4.6-5.83l-.25-2.3a5.14,5.14,0,0,1,6.47-5.63l7.18,2.16,9,2.72,11.26,3.39,7.92,2.39,12.17,3.66A5.08,5.08,0,0,1,289.25,80.43Z"/><path class="cls-3" d="M289.25,82.48v-2A5.44,5.44,0,0,1,289.25,82.48Z"/></g><path id="C" class="cls-3" d="M54.56,73.65c-3.06,4.93-8.1,7.76-15.17,7.76-12.51,0-18.8-9-18.8-22.55s6.29-22.55,18.8-22.55c7.07,0,12.11,2.83,15.17,7.76a21,21,0,0,1,2.29,5.17l10.48-2.89A27.31,27.31,0,0,0,54.56,30.16a30.86,30.86,0,0,0-15.17-3.64C20.8,26.52,9.68,39.58,9.68,58.86S20.8,91.2,39.39,91.2a30.86,30.86,0,0,0,15.17-3.64,27.31,27.31,0,0,0,12.77-16.2L56.85,68.47A21,21,0,0,1,54.56,73.65Z"/><path class="cls-3" d="M16.4,152.05c5.09,1.48,7.86,6,7.86,11,0,6.72-5.68,11.86-12.4,11.86A12.29,12.29,0,0,1,0,166.26l6.52-1.73a5.46,5.46,0,0,0,5.34,4.1,5.57,5.57,0,0,0,5.58-5.54,5.51,5.51,0,0,0-8.35-4.79l-3-5.29,9.58-7.95H1.38v-6.32H23.62v6.32Z"/><path class="cls-3" d="M28.71,161.86V151.19c0-7.91,5.29-13.2,13.19-13.2s13.2,5.29,13.2,13.2v10.67c0,7.9-5.29,13.19-13.2,13.19S28.71,169.76,28.71,161.86Zm19.52.49V150.64a6.33,6.33,0,0,0-12.65,0v11.71a6.33,6.33,0,1,0,12.65,0Z"/><path class="cls-3" d="M66.47,163.44l7-1a8.23,8.23,0,0,0,8.35,6.38c3.31,0,6.77-1.59,6.77-4.55,0-1.43-.69-2.72-3.46-3.56L75.91,158c-2.77-.8-8-2.53-8-9.29,0-7.17,6-10.68,13.29-10.63s12.5,3.76,14.23,10.43l-7.27,1.23c-.79-3.45-3.85-5.28-7.06-5.38s-6.13,1.48-6.13,4c0,2.32,2.47,3.21,4.74,3.81l6.18,1.68c3.66,1,9.83,2.76,9.83,9.93,0,7.65-7,11.31-14.28,11.31C73.49,175.05,67.56,170.65,66.47,163.44Z"/><path class="cls-3" d="M122.36,168v6.28H99.14V138.74h23.22V145h-16.5v7.61H119.4v6.27H105.86V168Z"/><path class="cls-3" d="M122.61,156.52c0-11.06,6.58-18.53,17.25-18.53,8.15,0,13.88,4.35,16.15,11.27l-6.76,1.88c-1.34-4.3-4.45-6.82-9.39-6.82-6.77,0-10.18,4.79-10.18,12.2s3.41,12.21,10.18,12.21c4.94,0,8-2.52,9.39-6.82l6.76,1.88c-2.27,6.91-8,11.26-16.15,11.26C129.19,175.05,122.61,167.59,122.61,156.52Z"/><path class="cls-3" d="M157.51,156.52c0-11.06,6.57-18.53,17.24-18.53S192,145.46,192,156.52s-6.57,18.53-17.24,18.53S157.51,167.59,157.51,156.52Zm27.37,0c0-7.41-3.36-12.1-10.13-12.2s-10.13,4.79-10.13,12.2,3.36,12.11,10.13,12.21S184.88,163.93,184.88,156.52Z"/><path class="cls-3" d="M201.79,174.31H195V138.74h6.82l15.46,23.71V138.74h6.82v35.57h-6.82l-15.46-23.72Z"/><path class="cls-3" d="M229,174.31V138.74h11.51a41.18,41.18,0,0,1,4.25.19c8.6,1,13.39,8.55,13.39,17.59s-4.79,16.55-13.39,17.59a39.13,39.13,0,0,1-4.25.2Zm6.82-6.33h4.69a22.65,22.65,0,0,0,3.85-.24c4.65-.94,6.67-6.13,6.67-11.22,0-5.33-2.17-10.32-6.67-11.21a21.75,21.75,0,0,0-3.85-.25h-4.69Z"/><path class="cls-3" d="M260.65,163.44l7-1a8.23,8.23,0,0,0,8.35,6.38c3.31,0,6.77-1.59,6.77-4.55,0-1.43-.69-2.72-3.46-3.56L270.09,158c-2.77-.8-8.06-2.53-8.06-9.29,0-7.17,6-10.68,13.29-10.63s12.5,3.76,14.23,10.43l-7.26,1.23c-.79-3.45-3.85-5.28-7.07-5.38s-6.12,1.48-6.12,4c0,2.32,2.47,3.21,4.74,3.81l6.18,1.68c3.65,1,9.83,2.76,9.83,9.93,0,7.65-7,11.31-14.28,11.31C267.66,175.05,261.74,170.65,260.65,163.44Z"/></g></g></g></svg>