<svg xmlns="http://www.w3.org/2000/svg" viewBox="0 0 286.99 129.31"><defs><style>.cls-1{fill:#f8da18;}.cls-2{fill:#2aaee4;}.cls-3{fill:#fff;}.cls-4{fill:#0e1c36;}</style></defs><title>logo-big-light-text-small</title><g id="Layer_2" data-name="Layer 2"><g id="logo-big-light-text-small"><g id="logo-big-light-text-small-2" data-name="logo-big-light-text-small"><path class="cls-1" d="M286.89,64.84V80.43a5.08,5.08,0,0,0-3.54-4l-12.17-3.66-7.92-2.39L252,67V64.84a6.73,6.73,0,0,1,6.73-6.73h21.43A6.73,6.73,0,0,1,286.89,64.84Z"/><path class="cls-2" d="M263.26,57.33V70.39L252,67l-9-2.72-7.18-2.16a5.14,5.14,0,0,0-6.47,5.63l.25,2.3a5.19,5.19,0,0,1-4.6,5.83V57.33a6.73,6.73,0,0,1,6.73-6.73h24.81A6.73,6.73,0,0,1,263.26,57.33Z"/><path class="cls-1" d="M243,51V64.28l-7.18-2.16a5.14,5.14,0,0,0-6.47,5.63l.25,2.3a5.19,5.19,0,0,1-4.6,5.83,3.64,3.64,0,0,1-.74,0l-6-.37-17.76-1.1V51a6.73,6.73,0,0,1,6.73-6.72h29.06A6.71,6.71,0,0,1,243,50.6,2.06,2.06,0,0,1,243,51Z"/><path class="cls-2" d="M218.24,43.87V75.53l-17.76-1.1-7.91-.49L189,73.72l-18-1.1V43.87a6.73,6.73,0,0,1,6.73-6.73h33.78A6.73,6.73,0,0,1,218.24,43.87Z"/><path id="s" class="cls-3" d="M211.19,75.09c-1.41-2.08-4.18-3.48-8.82-4.68l-1.89-.49C195,68.46,194,67.75,194,66.14c0-2,2.15-3.29,5.35-3.15a9.38,9.38,0,0,1,1.11.13c2.68.45,4.37,1.94,4.69,4.23l7-1.24c-.73-5.18-5.18-8.61-11.66-9-.4,0-.81,0-1.22,0-4.65,0-8.26,1.5-10.26,4.07a8.42,8.42,0,0,0-1.77,5.32A6.67,6.67,0,0,0,189,71.38a11.91,11.91,0,0,0,4.25,2.6h0a37,37,0,0,0,4.32,1.38c6.9,1.84,7.78,2.35,7.78,4.42,0,2.26-1.89,3.65-5.15,3.65-3.73,0-6.34-1.84-7-4.87l-7,1.08c1,6.17,5.94,9.71,13.5,9.71,7.87,0,12.63-3.74,12.63-9.88A7.49,7.49,0,0,0,211.19,75.09Z"/><path class="cls-1" d="M189,36V73.72l-18-1.1-13.68-.83-11.46-.7-9.35-.57V36a6.72,6.72,0,0,1,6.73-6.72h39A6.72,6.72,0,0,1,189,36Z"/><path id="d" class="cls-3" d="M170.31,46.13v13a13.88,13.88,0,0,0-8.47-2.61,16,16,0,0,0-4.52.62c-6.06,1.73-10.08,7-11,14h0a24.25,24.25,0,0,0-.23,3.35c0,10.2,6.1,17.94,15.52,17.94a14,14,0,0,0,9.7-3.46v2.52H178V46.13Zm.95,28.34c0,6.58-2.43,11.14-8.54,11.14-5.92,0-8.65-4.91-8.65-11.14a16.57,16.57,0,0,1,.23-2.86,10.43,10.43,0,0,1,3-6.25,8.09,8.09,0,0,1,5.66-2c4.73,0,7.25,3,8,7.72a13.32,13.32,0,0,1,.18,1.59A18.34,18.34,0,0,1,171.26,74.47Z"/><path class="cls-2" d="M157.32,27.25V71.79l-11.46-.7-9.35-.57L117,69.32l-18-1.1v-41a6.73,6.73,0,0,1,6.73-6.73h44.86A6.73,6.73,0,0,1,157.32,27.25Z"/><path id="r" class="cls-3" d="M136.51,50.72a11.86,11.86,0,0,0-4,1.74,11.31,11.31,0,0,0-3.78,4v-6h-7.46v37.8h8.47V69.05c0-4.38,1.54-7.92,5-9.8a8.89,8.89,0,0,1,1.78-.78,11.08,11.08,0,0,1,6-.13V50.46A15.16,15.16,0,0,0,136.51,50.72Z"/><path class="cls-1" d="M117,17.53V69.32l-18-1.1-.3,0a5.18,5.18,0,0,0-5.35,5.86l2.58,22.48a5.16,5.16,0,0,1-5.08,5.83l-18.92-.15-19.68-.16a6.84,6.84,0,0,1,0-.79V17.53a6.73,6.73,0,0,1,6.73-6.73h51.34A6.73,6.73,0,0,1,117,17.53Z"/><path id="a" class="cls-3" d="M101.5,48.91A12.37,12.37,0,0,0,99,45.49c-3.18-3.08-8-4.39-13.66-4.39-5.87,0-10.29,1.66-13.34,4.49a15.79,15.79,0,0,0-4.37,7.28L72,54.24l4.17,1.31c1.4-4.27,5.4-5.87,9.17-5.87,5.71,0,8.23,2.26,8.58,7.07-7.34,1.09-13.82,2-18.25,3.42A19.51,19.51,0,0,0,72,61.85c-4.06,2.43-5.89,6-5.89,10.86A12,12,0,0,0,72,83.36a15.86,15.86,0,0,0,8.17,2c6.14,0,10.41-1.81,13.82-5.72a13.55,13.55,0,0,0,.9-1.08v5.63h8.2V58.46C103.09,54.85,103,51.86,101.5,48.91ZM82,77.92c-4.43,0-6.76-2.25-6.76-5.32,0-2.72,1.86-4.31,5.09-5.52,2.95-1,6.76-1.59,13.44-2.64A19.79,19.79,0,0,1,92.87,71C91.94,73.88,88.41,77.92,82,77.92Z"/><path class="cls-2" d="M72,6.73v94.54a6,6,0,0,1-.07,1l-19.68-.16-47-.38a5.07,5.07,0,0,0-4.47,2.69,6.61,6.61,0,0,1-.76-3.1V6.73A6.73,6.73,0,0,1,6.73,0H65.27A6.73,6.73,0,0,1,72,6.73Z"/><g id="Arrow"><path class="cls-3" d="M286.89,80.43v2A5.07,5.07,0,0,1,284.44,86l-16.16,9.57-5,3-10.35,6.13L247.24,108l-5.77,3.42A5,5,0,0,1,234,108a4,4,0,0,1-.08-.48l-.7-6a5.05,5.05,0,0,0-5.12-4.59L225,97l-6.76.12-17.76.31-10.92.2H189l-18,.32-13.68.24-14.95.27-5.86.11-4.57.09a5.19,5.19,0,0,0-5,5.84l.82,3.51,3,13.1a5.17,5.17,0,0,1-5,5.85L9.2,129.31a5.12,5.12,0,0,1-5.15-4.6L.14,107.54a5.65,5.65,0,0,1,0-1.3,5,5,0,0,1,.61-1.87,5.07,5.07,0,0,1,4.47-2.69l47,.38,19.68.16,18.92.15a5.16,5.16,0,0,0,5.08-5.83L93.35,74.06A5.18,5.18,0,0,1,98.7,68.2l.3,0,18,1.1,19.51,1.2,9.35.57,11.46.7,13.68.83,18,1.1,3.57.22,7.91.49,17.76,1.1,6,.37a3.64,3.64,0,0,0,.74,0,5.19,5.19,0,0,0,4.6-5.83l-.25-2.3a5.14,5.14,0,0,1,6.47-5.63L243,64.28,252,67l11.26,3.39,7.92,2.39,12.17,3.66A5.08,5.08,0,0,1,286.89,80.43Z"/><path class="cls-3" d="M286.89,82.48v-2A5.44,5.44,0,0,1,286.89,82.48Z"/></g><path id="C" class="cls-3" d="M52.2,73.65c-3.06,4.93-8.1,7.76-15.17,7.76-12.51,0-18.8-9-18.8-22.55S24.52,36.31,37,36.31c7.07,0,12.11,2.83,15.17,7.76a21,21,0,0,1,2.29,5.17L65,46.35A27.31,27.31,0,0,0,52.2,30.16,30.86,30.86,0,0,0,37,26.52c-18.59,0-29.71,13.06-29.71,32.34S18.44,91.2,37,91.2A30.86,30.86,0,0,0,52.2,87.56,27.31,27.31,0,0,0,65,71.36L54.49,68.47A21,21,0,0,1,52.2,73.65Z"/><path class="cls-4" d="M15.52,113.69A4.33,4.33,0,0,1,18.59,118a4.74,4.74,0,0,1-4.85,4.65,4.82,4.82,0,0,1-4.65-3.41l2.56-.68a2.13,2.13,0,0,0,2.09,1.61A2.18,2.18,0,0,0,15.92,118a2.14,2.14,0,0,0-2.18-2.18,2.09,2.09,0,0,0-1.09.31l-1.18-2.07L15.23,111H9.64v-2.47h8.7V111Z"/><path class="cls-4" d="M20.33,117.53v-4.18a4.88,4.88,0,0,1,5.17-5.16,4.88,4.88,0,0,1,5.16,5.16v4.18a4.88,4.88,0,0,1-5.16,5.17A4.89,4.89,0,0,1,20.33,117.53Zm7.64.19v-4.58a2.48,2.48,0,1,0-4.95,0v4.58a2.48,2.48,0,1,0,4.95,0Z"/><path class="cls-4" d="M35.11,118.15l2.75-.41a3.21,3.21,0,0,0,3.27,2.5c1.29,0,2.65-.62,2.65-1.78,0-.56-.28-1.07-1.36-1.39L38.8,116c-1.08-.31-3.15-1-3.15-3.64s2.34-4.17,5.2-4.16,4.9,1.47,5.58,4.09l-2.85.48a2.8,2.8,0,0,0-2.76-2.11c-1.24,0-2.4.58-2.4,1.57s1,1.26,1.85,1.49l2.42.66c1.43.38,3.85,1.08,3.85,3.89,0,3-2.74,4.43-5.59,4.43C37.86,122.7,35.53,121,35.11,118.15Z"/><path class="cls-4" d="M57,120v2.46h-9.1V108.48H57v2.45H50.52v3h5.31v2.46H50.52V120Z"/><path class="cls-4" d="M57.08,115.44c0-4.33,2.57-7.25,6.75-7.25a6.27,6.27,0,0,1,6.33,4.41l-2.65.73a3.55,3.55,0,0,0-3.68-2.67c-2.65,0-4,1.88-4,4.78s1.33,4.78,4,4.78a3.55,3.55,0,0,0,3.68-2.67l2.65.73a6.27,6.27,0,0,1-6.33,4.42C59.65,122.7,57.08,119.77,57.08,115.44Z"/><path class="cls-4" d="M70.73,115.44c0-4.33,2.58-7.25,6.76-7.25s6.75,2.92,6.75,7.25-2.57,7.26-6.75,7.26S70.73,119.77,70.73,115.44Zm10.72,0c0-2.9-1.31-4.74-4-4.78s-4,1.88-4,4.78,1.32,4.74,4,4.78S81.45,118.34,81.45,115.44Z"/><path class="cls-4" d="M88.06,122.41H85.4V108.48h2.66l6.06,9.28v-9.28h2.67v13.93H94.12l-6.06-9.29Z"/><path class="cls-4" d="M98.72,122.41V108.48h4.51c.21,0,1,0,1.66.07,3.37.41,5.25,3.35,5.25,6.89s-1.88,6.48-5.25,6.89a15,15,0,0,1-1.66.08Zm2.67-2.48h1.84a8.41,8.41,0,0,0,1.51-.1c1.82-.37,2.61-2.4,2.61-4.39s-.85-4-2.61-4.39a8.41,8.41,0,0,0-1.51-.1h-1.84Z"/><path class="cls-4" d="M111.1,118.15l2.75-.41a3.21,3.21,0,0,0,3.27,2.5c1.29,0,2.65-.62,2.65-1.78,0-.56-.27-1.07-1.36-1.39L114.79,116c-1.08-.31-3.15-1-3.15-3.64s2.34-4.17,5.21-4.16,4.89,1.47,5.57,4.09l-2.85.48a2.8,2.8,0,0,0-2.76-2.11c-1.24,0-2.4.58-2.4,1.57s1,1.26,1.85,1.49l2.42.66c1.43.38,3.85,1.08,3.85,3.89,0,3-2.74,4.43-5.59,4.43C113.85,122.7,111.52,121,111.1,118.15Z"/></g></g></g></svg>